<?xml version="1.0" encoding="UTF-8"?>
<svg id="_图层_1" data-name="图层 1" xmlns="http://www.w3.org/2000/svg" version="1.1" viewBox="0 0 396.85 396.85">
  <defs>
    <style>
      .cls-1 {
        fill: #47585c;
      }

      .cls-1, .cls-2, .cls-3 {
        stroke-width: 0px;
      }

      .cls-2 {
        fill: #00a381;
      }

      .cls-3 {
        fill: #1b1410;
      }
    </style>
  </defs>
  <path class="cls-2" d="M215.29,374.3c-10.07.05-20.15.1-30.22.15,0,0,.28-.01.28-.01-1.94-.08-3.88-.16-5.83-.25-.08-1.99-.22-3.99-.22-5.98-.05-25.83-.17-51.65-.02-77.48.02-4.11-.78-6.31-5.31-5.94-1.64.13-3.31-.27-4.98-.37-12.09-.72-22.72-5.17-31.64-13.22-15.35-13.85-20.82-32.28-22-51.99-.96-16.11-.36-32.31-.48-48.47-.04-5.66-.65-11.31.11-16.97.52-3.86,2.75-6.08,6.5-6.38,4-.32,6.82,1.66,7.63,5.65.53,2.58.62,5.29.61,7.94-.04,14.99-.37,29.99-.22,44.98.13,13.18,1,26.29,6.52,38.61,7.21,16.09,19.34,24.8,37.14,25.87,5.34.32,6.22-1.47,6.2-6.32-.16-66.48-.12-132.96-.13-199.44,0-4.83-.22-9.68.09-14.49.6-9.37,7.96-16.94,16.76-17.61,8.44-.64,16.72,5.16,18.72,13.44.74,3.04,1,6.27,1,9.41.07,102.64.08,205.28.07,307.91,0,3.65-.39,7.31-.59,10.96ZM201.07,206.28s-.08,0-.12,0c0-50.64,0-101.28,0-151.92,0-1.83,0-3.67-.24-5.48-.24-1.86-.79-3.72-3.25-3.67-2.38.06-3.04,1.75-3.19,3.71-.13,1.66-.08,3.33-.08,4.99-.01,101.61-.02,203.22-.02,304.83,0,1.66,0,3.34.14,4.99.14,1.59.87,3.18,2.68,2.73,1.52-.38,3.98-.04,4.02-2.79.02-1.33.07-2.66.07-4,0-51.14,0-102.28,0-153.42Z"/>
  <path class="cls-1" d="M215.29,374.3c.21-3.65.59-7.31.59-10.96.01-102.64,0-205.28-.07-307.91,0-3.14-.26-6.37-1-9.41-2-8.28-10.28-14.08-18.72-13.44-8.8.66-16.16,8.23-16.76,17.61-.31,4.81-.09,9.66-.09,14.49,0,66.48-.04,132.96.13,199.44.01,4.85-.86,6.64-6.2,6.32-17.8-1.07-29.93-9.77-37.14-25.87-5.52-12.32-6.39-25.44-6.52-38.61-.15-14.99.18-29.99.22-44.98,0-2.65-.08-5.36-.61-7.94-.82-3.99-3.63-5.97-7.63-5.65-3.75.3-5.98,2.52-6.5,6.38-.76,5.66-.15,11.31-.11,16.97.12,16.16-.48,32.36.48,48.47,1.17,19.71,6.64,38.13,22,51.99,8.92,8.05,19.55,12.5,31.64,13.22,1.66.1,3.34.51,4.98.37,4.53-.37,5.33,1.83,5.31,5.94-.15,25.83-.03,51.65.02,77.48,0,2,.14,3.99.22,5.98q-7.29,1.69-7.3-5.43c-.03-24.14-.08-48.29-.06-72.43,0-2.49.05-4.21-3.42-4.51-34.88-3.02-51.85-26.14-58.53-56.08-1.82-8.16-2.46-16.45-2.54-24.77-.17-18.31-.24-36.63-.2-54.95.02-9.1,3.88-14.41,11.19-16.09,8.4-1.93,16.27,3.26,17.71,11.78.36,2.12.46,4.3.47,6.45.12,19.31.04,38.63.34,57.94.15,9.91,2.6,19.41,7.02,28.31,4.54,9.16,11.71,15.15,21.82,17.42,6.06,1.36,6.17,1.33,6.17-4.7.01-50.45.02-100.9.01-151.36,0-9.32-.1-18.65-.15-27.96-.02-2.45-.05-4.91-.07-7.36.08-6.47.14-12.94.24-19.42.23-14.92,10.52-25.78,24.54-25.89,14.93-.12,25.71,10.25,26.22,25.37.24,6.96.24,13.94.35,20.9-.02,2.15-.04,4.3-.06,6.45-.07.83-.2,1.65-.2,2.48,0,65.42,0,130.85.02,196.27,0,1.11.11,2.21.18,3.59,3.23-.71,5.3-2.62,7.38-4.44,7.34-6.4,10.86-14.98,13.35-24.05,2.88-10.49,3.88-21.26,3.92-32.1.08-18.31-.07-36.62.01-54.94.03-7.63,3.63-12.63,9.89-14.44,10.51-3.03,19.32,3.14,19.61,14.08.26,9.65.18,19.31-.06,28.96-.08,3.08,1.11,3.35,3.48,2.76,6.53-1.61,11.99-4.76,15.67-10.62,3.17-5.04,4.66-10.57,5.39-16.42.91-7.29,4.63-10.44,12.02-10.49,1.49-.01,2.99-.05,4.48-.08,2.58.26,5.16.52,7.74.78,4.09,3.36,5.32,7.65,4.9,12.87-2.46,30.64-20.87,50.21-51.36,54.12-2.36.3-2.51,1.25-2.63,3.11-.7,10.97-1.8,21.93-5.04,32.47-6.94,22.59-18.62,41.39-42.75,48.7-5.49,1.66-6.57,3.9-6.44,9.14.4,16.32.17,32.65.18,48.97q0,7.24-7.76,5.68ZM270.14,183h.04c0-6.16.16-12.34-.05-18.49-.17-5.22-4.3-8.44-9.11-7.2-4.67,1.2-5.89,4.77-5.88,9.2.05,19.33.12,38.66-.06,57.99-.11,11.36-1.62,22.59-4.96,33.48-3.55,11.6-8.96,22.61-20.32,27.81-6.52,2.98-7.51,6.61-6.9,12.36.07.66.09,1.34.01,2-.48,4,1.28,4.52,4.62,3.23,12.53-4.84,22.63-12.6,29.46-24.31,9.69-16.64,12.19-35.06,12.8-53.82.16-4.83,1.59-5.92,6.22-6.15,26.97-1.36,46.27-20.81,47.4-47.34.07-1.63.76-3.88-.82-4.66-3.55-1.75-7.53-.88-11.27-.53-3.09.29-2.08,3.34-2.35,5.29-2.86,20.69-15.13,32.21-34.45,32.62-3.6.08-4.61-1.01-4.46-4.47.25-5.65.07-11.33.07-16.99Z"/>
  <path class="cls-3" d="M185.36,374.43s-.28.01-.28.01c0,0,.28-.01.28-.01Z"/>
  <path class="cls-1" d="M201.07,206.28c0,51.14,0,102.28,0,153.42,0,1.33-.05,2.66-.07,4-.04,2.75-2.5,2.41-4.02,2.79-1.8.45-2.54-1.15-2.68-2.73-.15-1.65-.14-3.33-.14-4.99,0-101.61.01-203.22.02-304.83,0-1.67-.05-3.34.08-4.99.15-1.96.82-3.66,3.19-3.71,2.46-.06,3,1.8,3.25,3.67.23,1.81.24,3.65.24,5.48.01,50.64,0,101.28,0,151.92.04,0,.08,0,.12,0Z"/>
  <path class="cls-2" d="M270.14,183c0,5.67.18,11.34-.07,16.99-.15,3.46.86,4.55,4.46,4.47,19.32-.41,31.59-11.93,34.45-32.62.27-1.95-.73-5.01,2.35-5.29,3.74-.35,7.72-1.22,11.27.53,1.57.77.89,3.03.82,4.66-1.14,26.52-20.44,45.98-47.4,47.34-4.63.23-6.07,1.33-6.22,6.15-.61,18.76-3.11,37.18-12.8,53.82-6.82,11.71-16.93,19.47-29.46,24.31-3.34,1.29-5.1.77-4.62-3.23.08-.66.06-1.34-.01-2-.61-5.75.38-9.37,6.9-12.36,11.37-5.21,16.77-16.21,20.32-27.81,3.34-10.89,4.85-22.12,4.96-33.48.18-19.33.11-38.66.06-57.99-.01-4.43,1.21-7.99,5.88-9.2,4.81-1.24,8.94,1.98,9.11,7.2.2,6.16.05,12.33.05,18.49h-.04Z"/>
</svg>