<?xml version="1.0" standalone="no"?><!DOCTYPE svg PUBLIC "-//W3C//DTD SVG 1.1//EN" "http://www.w3.org/Graphics/SVG/1.1/DTD/svg11.dtd"><svg class="icon" width="32px" height="16.00px" viewBox="0 0 2048 1024" version="1.1" xmlns="http://www.w3.org/2000/svg"><path fill="#00a381" d="M1742.421 933.875c0 0-1446.429 0-1446.429 0-66.56 0-120.536-53.977-120.536-120.536 0 0 0-602.679 0-602.679 0-66.56 53.977-120.536 120.536-120.536 0 0 1446.429 0 1446.429 0 66.56 0 120.536 53.977 120.536 120.536 0 0 0 602.679 0 602.679 0 66.56-53.977 120.536-120.536 120.536zM647.402 365.187c-7.931 0.844-17.020 1.47-27.265 1.88s-21.624 0.844-34.16 1.253c0 0 0-87.75 0-87.75 0-10.872 2.723-18.804 8.149-23.817 6.268-5.857 8.872-9.933 7.836-12.222-1.036-2.289-6.172-3.23-15.356-2.82-7.112 0.41-15.886 0.218-26.325-0.626-10.438-0.844-20.273-1.88-29.458-3.133 1.664 9.185 3.037 24.757 4.073 46.695 1.036 21.938 1.568 49.83 1.568 83.677-15.453 0-29.145-0.313-41.055-0.94-11.909-0.626-22.468-1.35-31.653-2.194 0 0 0 49.516 0 49.516 8.775-0.844 19.214-1.567 31.339-2.194 12.126-0.626 25.914-0.94 41.367-0.94 0 0 0 124.73 0 124.73-14.633 4.605-28.833 8.775-42.622 12.536-13.789 3.761-26.735 6.895-38.861 9.401 2.508 9.619 5.111 19.744 7.836 30.398 2.723 10.656 4.917 21.407 6.581 32.28 10.438-6.677 21.214-12.945 32.28-18.804 11.065-5.858 22.661-11.692 34.786-17.55 0 0 0 112.195 0 112.195 0 14.632-4.701 24.541-14.102 29.773-9.401 5.231-27.265 6.364-53.59 3.448 8.365 11.692 14.198 21.938 17.55 30.713 3.352 8.775 5.858 17.961 7.522 27.578 20.058-2.941 36.136-5.761 48.262-8.461 12.126-2.723 21.407-6.172 27.893-10.342 6.485-4.195 10.751-9.619 12.848-16.297 2.097-6.701 3.133-15.669 3.133-26.951 0 0 0-162.964 0-162.964 9.619-3.761 19.117-7.425 28.519-10.969 9.401-3.544 18.9-6.992 28.519-10.342-2.097-6.268-3.447-13.38-4.073-21.311-0.626-7.931-0.531-15.886 0.313-23.817-7.112 3.352-15.139 6.895-24.131 10.656-8.993 3.761-18.708 7.739-29.145 11.909 0 0 0-107.808 0-107.808 12.536 0.41 23.914 0.844 34.16 1.253 10.245 0.41 19.333 1.036 27.265 1.88 0 0 0-49.516 0-49.516zM883.074 262.708c-8.364-11.909-15.453-22.661-21.311-32.28 0 0-48.889 28.833-48.889 28.833 9.619 10.872 18.274 22.155 26.011 33.847 7.739 11.693 13.886 23.407 18.49 35.1 0 0 52.65-29.459 52.65-29.459-9.619-12.126-18.586-24.131-26.951-36.039zM1014.071 694.25c-4.17 0.844-8.993 1.47-14.416 1.88-5.424 0.41-12.848 0.724-22.251 0.94-9.401 0.218-21.72 0.41-36.98 0.626-15.261 0.218-34.786 0.313-58.605 0.313 0 0 0-73.334 0-73.334 17.55 0 31.749 0 42.622 0 10.872 0 19.744 0.097 26.638 0.313 6.895 0.218 12.536 0.531 16.924 0.94 4.387 0.41 8.461 0.844 12.222 1.253 0 0 0-50.143 0-50.143-3.761 0.41-7.739 0.844-11.909 1.253-4.17 0.41-9.812 0.724-16.924 0.94-7.112 0.217-16.080 0.41-26.951 0.626-10.872 0.218-25.071 0.313-42.622 0.313 0 0 0-77.722 0-77.722 17.14 0 31.027 0.097 41.681 0.313 10.656 0.217 19.43 0.41 26.325 0.626 6.895 0.217 12.536 0.531 16.924 0.94 4.388 0.41 8.461 0.844 12.222 1.253 0 0 0-50.77 0-50.77-3.761 0.41-7.739 0.844-11.909 1.253-4.17 0.41-9.715 0.724-16.61 0.94-6.895 0.218-15.766 0.41-26.638 0.626-10.872 0.218-24.855 0.313-41.995 0.313 0 0 0-71.453 0-71.453 21.311 0 38.547 0 51.711 0 13.163 0 23.817 0.097 31.966 0.313 8.149 0.218 14.512 0.531 19.118 0.94 4.605 0.41 8.992 0.844 13.163 1.253 0 0 0-50.77 0-50.77-4.17 0.41-8.872 0.844-14.102 1.253-5.231 0.41-12.753 0.724-22.564 0.94-9.812 0.218-22.878 0.41-39.174 0.626-16.297 0.218-37.607 0.313-63.933 0.313 0 0-115.328 0-115.328 0 6.677-15.042 12.126-27.049 16.297-36.039 4.17-8.993 7.617-16.080 10.343-21.311 2.723-5.231 5.014-8.993 6.895-11.282 1.88-2.289 3.857-4.073 5.955-5.328 14.633-10.438 14.198-16.297-1.253-17.55-7.112-0.844-15.982-3.23-26.638-7.207-10.656-3.977-20.781-7.836-30.398-11.595-2.097 12.126-4.17 23.094-6.268 32.906-2.097 9.812-4.291 19.43-6.581 28.833-2.289 9.401-5.014 18.804-8.149 28.206-3.133 9.401-6.581 19.333-10.343 29.773-10.028 25.481-20.587 46.793-31.653 63.933-11.065 17.14-24.349 33.437-39.802 48.889 16.706 5.014 31.122 13.573 43.249 25.699 5.014-7.112 9.933-14.513 14.73-22.251 4.797-7.739 9.499-15.766 14.102-24.131 0 0 0 214.987 0 214.987 0 16.706-0.097 31.339-0.313 43.875-0.218 12.536-0.626 24.035-1.253 34.474-0.626 10.438-1.35 20.153-2.194 29.145-0.844 8.968-1.88 18.056-3.133 27.265 0 0 53.903 0 53.903 0 0 0 0-50.143 0-50.143 0 0 136.639 0 136.639 0 25.071 0 45.442 0 61.112 0 15.669 0 28.422 0.192 38.234 0.626 9.812 0.41 17.453 0.82 22.878 1.253 5.424 0.41 10.438 0.82 15.042 1.253 0 0 0-51.397 0-51.397zM1106.21 636.273c5.014 8.149 9.812 16.61 14.417 25.385 32.593-23.817 62.895-49.106 90.883-75.841 0 0 0 135.386 0 135.386 0 13.355-0.217 25.891-0.626 37.607-0.41 11.692-1.253 24.227-2.508 37.607 0 0 57.664 0 57.664 0-1.253-13.38-2.097-25.914-2.508-37.607-0.41-11.716-0.626-24.251-0.626-37.607 0 0 0-188.036 0-188.036 12.945-14.198 24.855-28.422 35.726-42.622 10.872-14.198 20.684-27.989 29.458-41.367 0 0 118.462 0 118.462 0 16.706 0 33.533 0.097 50.456 0.313 16.924 0.218 33.219 0.531 48.889 0.94 15.669 0.41 30.183 1.036 43.562 1.88 13.38 0.844 25.071 1.664 35.1 2.508 0 0 0-48.263 0-48.263-10.028 0.844-21.72 1.567-35.1 2.194-13.38 0.626-27.892 1.157-43.562 1.567-15.669 0.41-31.966 0.724-48.889 0.94-16.924 0.218-33.75 0.313-50.456 0.313 0 0-96.525 0-96.525 0 4.605-7.931 8.558-13.692 11.909-17.237 3.352-3.544 7.931-6.799 13.789-9.715 4.17-2.097 6.052-4.073 5.641-5.955-0.41-1.88-3.352-3.23-8.775-4.073-7.931-1.664-16.393-3.857-25.385-6.581-8.992-2.723-18.9-6.172-29.773-10.343-2.508 7.522-5.737 15.669-9.715 24.445-3.977 8.775-8.872 18.586-14.73 29.459 0 0-0.626 0-0.626 0-34.256 0-67.477-0.41-99.659-1.253-32.183-0.844-58.508-2.097-78.975-3.761 0 0 0 48.262 0 48.262 17.55-1.664 40.427-2.917 68.632-3.761 28.206-0.844 57.567-1.47 88.063-1.88-12.126 18.394-25.385 35.63-39.802 51.711-14.417 16.080-29.458 30.93-45.128 44.501-15.669 13.573-31.749 26.011-48.263 37.294-16.513 11.282-32.689 21.528-48.576 30.712 6.678 7.112 12.536 14.73 17.55 22.878zM1625.188 287.466c-18.804 2.097-40.837 3.448-66.126 4.073-25.289 0.626-53.374 0.94-84.302 0.94 0 0 0-35.726 0-35.726 0-2.097 0.531-4.605 1.567-7.521 1.036-2.918 3.23-5.424 6.581-7.522 4.17-2.508 5.955-4.605 5.328-6.268-0.626-1.664-3.23-2.508-7.836-2.508-7.931 0.41-16.826 0.41-26.638 0-9.812-0.41-18.9-1.036-27.265-1.88 1.253 5.858 2.097 11.282 2.508 16.297 0.41 5.014 0.626 10.872 0.626 17.55 0 0 0 27.578 0 27.578 0 0-130.999 0-130.999 0 0 0 0-32.593 0-32.593 0-2.097 0.531-4.605 1.567-7.521 1.036-2.918 3.23-5.424 6.581-7.522 4.17-2.508 5.955-4.605 5.328-6.268-0.626-1.664-3.23-2.508-7.836-2.508-7.931 0.41-16.826 0.41-26.638 0-9.812-0.41-18.9-1.036-27.265-1.88 1.253 5.857 2.097 11.282 2.508 16.297 0.41 5.014 0.626 10.872 0.626 17.55 0 0 0 24.445 0 24.445-28.833 0-55.253-0.313-79.289-0.94-24.035-0.626-45.032-1.976-62.992-4.073 0 0 0 48.889 0 48.889 17.55-1.664 38.451-2.917 62.679-3.761 24.227-0.844 50.77-1.47 79.601-1.88 0 7.112-0.217 13.789-0.626 20.058-0.41 6.268-1.036 12.319-1.88 18.176 0 0 48.889 0 48.889 0-0.844-6.677-1.253-13.258-1.253-19.744 0-6.485 0-12.633 0-18.489 0 0 130.999 0 130.999 0 0 7.521-0.217 15.139-0.626 22.878-0.41 7.739-1.036 14.946-1.88 21.624 0 0 48.889 0 48.889 0-0.844-7.112-1.253-13.789-1.253-20.058 0-6.268 0-14.417 0-24.445 30.93 0 59.014 0.41 84.302 1.253 25.289 0.844 47.323 2.289 66.126 4.388 0 0 0-48.889 0-48.889zM1633.963 608.38c-17.55 1.253-37.294 2.289-59.231 3.133s-47.539 1.47-76.781 1.88c0 0 0-16.297 0-16.297 0 0 62.679-37.607 62.679-37.607 5.424-3.352 12.753-6.678 21.938-10.028 9.185-3.352 18.586-6.485 28.206-9.401 0 0 0-45.755 0-45.755-10.872 1.664-28.422 2.917-52.65 3.761-24.227 0.844-54.747 1.253-91.511 1.253-36.763 0-67.477-0.217-92.137-0.626-24.661-0.41-42.405-1.47-53.276-3.133 0 0 0 45.755 0 45.755 5.014-0.41 11.282-0.844 18.804-1.253 7.522-0.41 15.356-0.844 23.505-1.253 8.149-0.41 15.886-0.724 23.191-0.94 7.305-0.217 13.258-0.313 17.864-0.313 0 0 120.343 0 120.343 0 0 0-75.841 45.755-75.841 45.755 0 0 0 30.086 0 30.086-33.847 0-62.583-0.41-86.183-1.253-23.602-0.844-44.406-2.097-62.364-3.761 0 0 0 45.755 0 45.755 17.961-1.253 38.764-2.194 62.364-2.82 23.602-0.626 52.336-0.94 86.183-0.94 0 0 0 75.214 0 75.214 0 5.014-0.94 8.968-2.82 11.909-1.88 2.917-5.424 5.111-10.656 6.581-5.231 1.446-12.753 2.194-22.564 2.194-9.812 0-22.468-0.626-37.92-1.88 6.268 11.282 10.872 21.311 13.789 30.086 2.918 8.775 5.014 17.742 6.268 26.951 20.058-1.688 36.668-3.881 49.83-6.581 13.163-2.723 23.602-6.075 31.339-10.028 7.739-3.977 13.258-8.679 16.61-14.102 3.352-5.449 5.014-11.716 5.014-18.804 0 0 0-101.539 0-101.539 29.677 0.41 55.374 0.94 77.094 1.567 21.72 0.626 41.367 1.35 58.917 2.194 0 0 0-45.755 0-45.755zM740.168 624.676c0 0 91.511 0 91.511 0s0 73.334 0 73.334c0 0-91.511 0-91.511 0 0 0 0-73.334 0-73.334zM740.168 502.453c0 0 91.511 0 91.511 0s0 77.722 0 77.722c0 0-91.511 0-91.511 0 0 0 0-77.722 0-77.722zM740.168 386.499c0 0 91.511 0 91.511 0s0 71.453 0 71.453c0 0-91.511 0-91.511 0 0 0 0-71.453 0-71.453z" /></svg>